<svg width="28" height="26" viewBox="0 0 28 26" fill="none" xmlns="http://www.w3.org/2000/svg">
  <path d="M0.710938 1.12598H0.711914L4.81543 2.16797L6.70215 5.04395L6.84961 5.27051H27.3096L23.1777 17.874H10.9346L10.7969 18.1533L9.33105 21.1338L8.97656 21.8545H23.1992V22.0205H22.1201L22.4678 22.7383C22.5688 22.9469 22.6259 23.1802 22.626 23.4268C22.626 24.2964 21.9225 25 21.0869 25C20.2514 25 19.5479 24.2964 19.5479 23.4268C19.5478 23.1877 19.6023 22.952 19.7061 22.7383L20.0547 22.0205H11.9248L12.2725 22.7383C12.3734 22.9469 12.4306 23.1803 12.4307 23.4268C12.4307 24.2963 11.727 24.9998 10.8916 25C10.056 25 9.35254 24.2964 9.35254 23.4268C9.3525 23.1877 9.40603 22.952 9.50977 22.7383L9.8584 22.0205H8.72754L10.7207 17.9668L10.8105 17.7842L10.7471 17.5908L6.76855 5.45605L6.74707 5.39258L6.71094 5.33691L4.83789 2.48047L4.73145 2.31738L4.54297 2.26953L0.679688 1.28809L0.603516 1.26855L0.642578 1.1084L0.710938 1.12598ZM10.8916 22.0195C10.1082 22.0195 9.49909 22.6506 9.49902 23.4268C9.49902 24.203 10.1081 24.834 10.8916 24.834C11.6749 24.8338 12.2832 24.2029 12.2832 23.4268C12.2831 22.6507 11.6748 22.0197 10.8916 22.0195ZM21.0869 22.0195C20.3035 22.0195 19.6944 22.6506 19.6943 23.4268C19.6943 24.203 20.3035 24.834 21.0869 24.834C21.8704 24.834 22.4795 24.203 22.4795 23.4268C22.4794 22.6506 21.8703 22.0195 21.0869 22.0195ZM9.85254 14.3838L10.8291 17.3633L10.9424 17.708H13.876V13.7275H9.6377L9.85254 14.3838ZM14.0234 17.708H19.9941V13.7275H14.0234V17.708ZM20.1406 17.708H23.0752L23.1875 17.3633L24.165 14.3838L24.3799 13.7275H20.1406V17.708ZM8.49316 10.2383L9.46973 13.2178L9.58301 13.5615H13.876V9.58203H8.27832L8.49316 10.2383ZM14.0234 13.5615H19.9941V9.58203H14.0234V13.5615ZM20.1406 13.5615H24.4346L24.5469 13.2178L25.5244 10.2383L25.7393 9.58203H20.1406V13.5615ZM7.13379 6.0918L8.11035 9.07129L8.22363 9.41602H13.876V5.43555H6.91895L7.13379 6.0918ZM14.0234 9.41602H19.9941V5.43555H14.0234V9.41602ZM20.1406 9.41602H25.7939L25.9062 9.07129L26.8838 6.0918L27.0986 5.43555H20.1406V9.41602Z" fill="black" stroke="black"/>
</svg>